<svg xmlns="http://www.w3.org/2000/svg" version="1.1" xmlns:xlink="http://www.w3.org/1999/xlink" xmlns:svgjs="http://svgjs.dev/svgjs" width="385" height="400"><svg width="385" height="400" viewBox="0 0 385 400" fill="none" xmlns="http://www.w3.org/2000/svg">
<rect width="384.014" height="399.06" fill="#161A2B"></rect>
<path d="M152.947 201.8C171.056 195.731 181.042 180.011 181.042 157.554V133.762C181.042 94.371 159.565 72.7031 120.521 72.7031H60V347.952H120.521C159.565 347.952 181.042 326.163 181.042 286.469V254.665C181.042 231.722 170.875 215.517 153.068 209.994L150.661 209.205V202.468L153.008 201.679L152.947 201.8ZM127.921 295.452C127.921 298.243 127.921 306.619 120.521 306.619H113.061V227.049H120.521C125.454 227.049 127.921 230.63 127.921 237.792V295.391V295.452ZM127.921 174.488C127.921 177.219 127.921 185.655 120.521 185.655H113.061V114.157H120.521C125.454 114.157 127.921 117.799 127.921 124.9V174.488Z" fill="#FEF3EF"></path>
<path d="M260.635 117.664V186.855H246.136V72.75H194.519V298.897H246.136V228.856H260.635V348.06H312.252V117.664H260.635Z" fill="#FEF3EF"></path>
<path d="M322.237 65.2634L331.2 85.4747L317.364 89.8447L312.25 68.5409L295.947 82.9255L287.283 71.0901L305.813 59.9223L286.983 48.8153L295.465 36.9192L311.889 51.3644L316.461 30L330.358 34.5521L322.056 54.6419L343.714 52.7604L344.014 67.3271L322.237 65.2634Z" fill="#EF7A63"></path>
</svg><style>@media (prefers-color-scheme: light) { :root { filter: none; } }
@media (prefers-color-scheme: dark) { :root { filter: none; } }
</style></svg>