<svg width="24" height="24" viewBox="0 0 24 24" fill="none" xmlns="http://www.w3.org/2000/svg">
<path fill-rule="evenodd" clip-rule="evenodd" d="M7.25 8.88889C7.25 6.25081 9.36602 4 11.9968 4C14.6275 4 16.7435 6.25081 16.7435 8.88889C16.7435 10.3181 16.1224 11.6337 15.1349 12.5393C17.4372 13.7308 19 16.1925 19 19V20H17V19C17 16.0813 14.7275 13.7778 12 13.7778C9.27254 13.7778 7 16.0813 7 19V20H5V19C5 16.1942 6.56093 13.7338 8.86097 12.5414C7.87207 11.6358 7.25 10.3193 7.25 8.88889ZM11.9968 11.7778C13.4534 11.7778 14.7435 10.4932 14.7435 8.88889C14.7435 7.28454 13.4534 6 11.9968 6C10.5401 6 9.25 7.28454 9.25 8.88889C9.25 10.4932 10.5401 11.7778 11.9968 11.7778Z" fill="currentColor"/>
</svg>
