<svg width="42" height="42" viewBox="0 0 42 42" fill="none" xmlns="http://www.w3.org/2000/svg">
<path d="M37.1409 8.43132L22.7949 19.9802L22.9935 20.4818L41.4394 18.8324V23.6829L22.9935 21.6329L22.6939 22.2321L37.1409 33.9291L33.6403 37.3793L21.7918 22.9322L21.2902 23.0332L22.9901 41.9773H18.2911L20.139 23.0332L19.7385 22.9322L7.9405 37.3793L4.39269 33.9291L18.8902 22.2321L18.6916 21.7306L0 23.4775V18.728L18.594 20.576L18.695 19.9769L4.39942 8.43132L7.94723 4.83301L19.6442 19.0781L20.1458 18.829L18.2945 0.433594H22.9935L21.2936 18.728L21.7951 19.0781L33.6436 4.83301L37.1443 8.43132H37.1409Z" fill="#FF7C60"/>
</svg>
