<svg width="39" height="43" viewBox="0 0 39 43" fill="none" xmlns="http://www.w3.org/2000/svg">
<path d="M19.1831 42.8761C18.2002 42.8761 17.2543 42.5361 16.3455 41.8528C15.4367 41.1728 14.9823 40.1496 14.9823 38.7897C14.9823 37.2009 15.191 35.7636 15.6084 34.4778C16.0224 33.1919 16.4398 31.7546 16.8572 30.1659C17.2712 28.5771 17.4428 26.6113 17.3688 24.2652L17.2543 24.1507C15.44 25.0596 13.7739 26.3656 12.2625 28.0655C10.7478 29.7687 9.34751 31.2834 8.06168 32.6063C6.77585 33.9291 5.49002 34.5922 4.20419 34.5922C3.06983 34.5182 2.08358 34.0065 1.25217 33.0607C0.41739 32.1148 0.00336604 31.1521 0.00336604 30.1659C0.00336604 28.806 0.572228 27.7457 1.70658 26.9883C2.84094 26.2343 4.26141 25.6453 5.96127 25.2279C7.66448 24.8139 9.42156 24.3392 11.2392 23.8108C13.0535 23.2823 14.6053 22.562 15.8911 21.6531V21.4276C14.4538 20.3673 12.828 19.6133 11.0103 19.1589C9.19603 18.7045 7.43559 18.3073 5.73237 17.9673C4.02916 17.6274 2.64908 17.1157 1.58877 16.4358C0.528469 15.7558 0 14.7326 0 13.3727C0 12.3157 0.414024 11.2723 1.2488 10.2523C2.08022 9.23244 3.0631 8.7208 4.20082 8.7208C5.33855 8.7208 6.58398 9.32668 7.94723 10.5351C9.30711 11.7469 10.7848 13.1438 12.3736 14.7359C13.9624 16.3247 15.5882 17.762 17.2543 19.0478L17.3688 18.9334C17.3688 16.4358 17.1601 14.3926 16.7461 12.8038C16.3287 11.215 15.9315 9.79793 15.5545 8.54913C15.1741 7.30033 14.9856 5.95727 14.9856 4.51997C14.9856 3.08267 15.44 2.04256 16.3489 1.39965C17.2577 0.756734 18.2036 0.433594 19.1865 0.433594C20.2434 0.433594 21.1893 0.756734 22.024 1.39965C22.8554 2.04256 23.2728 3.04564 23.2728 4.40553C23.2728 5.92025 23.0473 7.33735 22.5929 8.66021C22.1385 9.98306 21.7009 11.4406 21.2869 13.0293C20.8695 14.6181 20.6978 16.6243 20.7752 19.0445L20.8897 19.1589C22.6299 17.7957 24.2759 16.3045 25.8277 14.6753C27.376 13.0495 28.8167 11.6493 30.1396 10.4779C31.4624 9.30649 32.6944 8.71743 33.8288 8.71743C34.9631 8.71743 35.946 9.17185 36.7808 10.0807C37.6122 10.9895 38.0296 12.0498 38.0296 13.2582C38.0296 14.6955 37.4237 15.776 36.2153 16.493C35.0035 17.2133 33.509 17.762 31.7317 18.139C29.9544 18.5194 28.194 18.9334 26.4537 19.3878C24.7135 19.8422 23.2762 20.5222 22.1418 21.431V21.6565C24.0336 22.6394 25.9051 23.3968 27.7598 23.9252C29.6145 24.4571 31.3143 24.9485 32.8661 25.3995C34.4144 25.854 35.6632 26.4397 36.6125 27.16C37.5583 27.8803 38.0296 28.9204 38.0296 30.2803C38.0296 31.4147 37.6122 32.4178 36.7808 33.2862C35.946 34.158 34.9665 34.5922 33.8288 34.5922C32.691 34.5922 31.4624 33.9863 30.1396 32.7779C28.8167 31.5695 27.3962 30.1288 25.8849 28.466C24.3702 26.8032 22.7073 25.3659 20.893 24.1541L20.7786 24.2686C20.7012 26.6147 20.8728 28.6007 21.2902 30.2265C21.7043 31.8556 22.1418 33.33 22.5963 34.6528C23.0507 35.9757 23.2762 37.3961 23.2762 38.9075C23.2762 40.1967 22.8588 41.1762 22.0274 41.8561C21.1926 42.5361 20.2501 42.8794 19.1898 42.8794L19.1831 42.8761Z" fill="#FF7C60"/>
</svg>
