<svg width="38" height="44" viewBox="0 0 38 44" fill="none" xmlns="http://www.w3.org/2000/svg">
<path d="M37.4944 33.2593C35.7743 33.1785 34.2764 32.953 33.0074 32.5827C31.7351 32.2124 30.4055 31.5796 29.0119 30.6775C27.4535 29.7754 26.0397 28.7319 24.7707 27.5437C23.4984 26.3555 22.1284 25.1067 20.6541 23.7939L19.4254 24.4099C19.8327 26.3757 20.304 28.1597 20.8392 29.7586C21.371 31.3574 21.6369 33.0607 21.6369 34.8615C21.6369 36.6623 21.4518 38.1198 21.0849 39.473C20.7146 40.8261 20.1626 42.2836 19.4254 43.8387H18.4426C17.7054 42.2836 17.1702 40.8261 16.8437 39.473C16.5138 38.1198 16.3522 36.5849 16.3522 34.8615C16.3522 32.8149 16.598 31.0713 17.0894 29.6374C17.5809 28.2035 18.0319 26.4632 18.4426 24.4133L17.3351 23.9219C15.6959 25.1505 14.3023 26.3622 13.1545 27.5505C12.0067 28.7387 10.6535 29.7855 9.09842 30.6842C7.70488 31.5863 6.37192 32.2023 5.10292 32.5288C3.83056 32.8587 2.29564 33.064 0.491443 33.1448L0 32.4077C0.982885 30.8525 1.94557 29.661 2.88807 28.843C3.83056 28.0251 5.03897 27.2037 6.51666 26.3824C8.3175 25.3188 9.97696 24.6422 11.495 24.3527C13.0098 24.0666 14.7534 23.6357 16.7191 23.0601V21.4613C14.8342 20.8049 13.0502 20.2933 11.3705 19.923C9.69084 19.5527 8.07178 18.8762 6.5133 17.8933C5.03897 16.9912 3.82719 16.1093 2.8847 15.2509C1.94221 14.3892 1.01991 13.2212 0.117812 11.7469L0.488077 10.8852C2.28891 10.9693 3.807 11.215 5.03897 11.6223C6.26758 12.033 7.62073 12.6894 9.09505 13.5881C10.1587 14.2445 11.0406 14.8605 11.7374 15.4327C12.4342 16.0083 13.0468 16.5603 13.582 17.0922C14.1138 17.6274 14.6457 18.1592 15.1809 18.691C15.7127 19.2262 16.3893 19.8186 17.2106 20.475L18.4392 19.7379C18.0285 17.8529 17.5775 16.1328 17.086 14.5743C16.5946 13.0192 16.3489 11.2554 16.3489 9.28629C16.3489 7.56624 16.5138 6.04816 16.8403 4.7354C17.1668 3.42601 17.702 1.98871 18.4392 0.433594H19.4221C20.1592 1.99207 20.7113 3.42601 21.0815 4.7354C21.4518 6.04816 21.6336 7.56288 21.6336 9.28629C21.6336 11.0097 21.3879 12.6894 20.8964 14.3286C20.405 15.9679 19.9539 17.7721 19.5433 19.7379L20.8964 20.475C21.6336 19.8186 22.2899 19.206 22.8622 18.6304C23.4344 18.0582 24.01 17.4826 24.5822 16.907C25.1545 16.3348 25.7906 15.7828 26.4874 15.2476C27.1842 14.7157 28.0257 14.1637 29.0086 13.5881C29.9107 13.0967 30.7084 12.6658 31.4052 12.2955C32.102 11.9253 32.7584 11.6627 33.371 11.4978C33.987 11.3328 34.6198 11.1915 35.2762 11.0669C35.9325 10.9458 36.6697 10.8818 37.4876 10.8818L37.9791 11.7435C37.077 13.2178 36.1749 14.369 35.2762 15.187C34.3741 16.0083 33.1051 16.907 31.4658 17.8933C29.6616 18.9603 28.0021 19.6571 26.4874 19.9836C24.9693 20.3135 23.2695 20.8049 21.3845 21.4579V23.0568C23.3503 23.6324 25.0905 24.0632 26.6086 24.3493C28.1233 24.6388 29.7457 25.312 31.4658 26.3791C33.1858 27.4461 34.4986 28.328 35.4007 29.0214C36.3028 29.7182 37.1611 30.8862 37.9825 32.5255L37.491 33.2626L37.4944 33.2593Z" fill="#FF7C60"/>
</svg>
