<svg width="43" height="42" viewBox="0 0 43 42" fill="none" xmlns="http://www.w3.org/2000/svg">
<path d="M7.43896 14.0257L19.2067 21.5724L18.7859 22.8918L4.8572 21.9965L0 15.978L7.43896 14.0257ZM19.4187 24.5816L20.5261 25.3726L15.4064 38.4598L8.17612 41.1493L8.59688 33.3401L19.4153 24.5816H19.4187ZM21.159 0.433594L25.38 6.97719L21.8961 20.4851H20.4184L16.9346 6.97719L21.159 0.433594ZM22.8992 24.5816L33.61 33.3401L34.0307 41.1493L26.75 38.3521L21.6841 25.3726L22.8992 24.5816ZM34.879 14.0257L42.4256 15.978L37.4641 21.9931L23.6397 22.8885L23.219 21.4646L34.879 14.0257Z" fill="#FF7C60"/>
</svg>
