<svg width="24" height="24" viewBox="0 0 24 24" fill="none" xmlns="http://www.w3.org/2000/svg">
<path fill-rule="evenodd" clip-rule="evenodd" d="M2.9153 3.47141C3.20723 3.17756 3.6821 3.176 3.97596 3.46793L6.78794 6.26154C8.19502 5.48853 9.76816 5.02778 11.5 5.02778C15.8521 5.02778 19.5499 7.81813 20.7194 11.7881C20.761 11.929 20.7602 12.0791 20.7171 12.2197C20.1403 14.1024 19.0049 15.7078 17.5456 16.86L20.1707 19.4679C20.4645 19.7599 20.4661 20.2347 20.1742 20.5286C19.8822 20.8224 19.4074 20.824 19.1135 20.5321L16.0611 17.4996C15.9666 17.4631 15.8784 17.407 15.803 17.3321L12.8508 14.3992C12.8506 14.399 12.8509 14.3993 12.8508 14.3992L2.91878 4.53207C2.62493 4.24013 2.62337 3.76526 2.9153 3.47141ZM7.90507 7.37137L9.67238 9.12713C10.2138 8.77018 10.8271 8.58333 11.5 8.58333C13.4306 8.58333 14.9342 10.07 14.9342 12C14.9342 12.6045 14.7786 13.2382 14.4411 13.7758L16.4722 15.7936C17.7095 14.8627 18.6891 13.5481 19.2135 11.9959C18.167 8.79079 15.1197 6.52778 11.5 6.52778C10.2043 6.52778 9.00769 6.8331 7.90507 7.37137ZM13.2974 12.7284C13.3854 12.5115 13.4342 12.2632 13.4342 12C13.4342 10.9077 12.6115 10.0833 11.5 10.0833C11.2443 10.0833 11.0054 10.1293 10.7793 10.2268L13.2974 12.7284ZM4.89391 8.74279C5.22006 8.99813 5.27747 9.46952 5.02213 9.79567C4.47728 10.4916 4.03252 11.2237 3.78377 11.9957C4.82768 15.2052 7.87714 17.4722 11.5 17.4722C12.0567 17.4722 12.5368 17.394 13.0775 17.3045C13.4861 17.2369 13.8723 17.5133 13.9399 17.9219C14.0076 18.3306 13.7312 18.7167 13.3225 18.7844L13.3047 18.7873C12.7763 18.8748 12.1882 18.9722 11.5 18.9722C7.14787 18.9722 3.45014 16.1819 2.28057 12.2119C2.24115 12.0781 2.23983 11.936 2.27676 11.8015C2.58112 10.6928 3.18075 9.71439 3.84103 8.871C4.09637 8.54485 4.56776 8.48745 4.89391 8.74279Z" fill="currentColor"/>
</svg>
