<svg width="24" height="24" viewBox="0 0 24 24" fill="none" xmlns="http://www.w3.org/2000/svg">
<path fill-rule="evenodd" clip-rule="evenodd" d="M3.79431 12C4.92517 15.0761 7.9685 17.25 11.5 17.25C15.0349 17.25 18.0806 15.0719 19.2089 11.9912C18.1625 8.93207 15.1292 6.75 11.5 6.75C7.9685 6.75 4.92517 8.92393 3.79431 12ZM2.28799 11.7643C3.55513 7.93588 7.24734 5.25 11.5 5.25C15.8339 5.25 19.5409 7.93037 20.7173 11.7809C20.7626 11.9293 20.7608 12.0883 20.712 12.2357C19.4449 16.0641 15.7527 18.75 11.5 18.75C7.24734 18.75 3.55513 16.0641 2.28799 12.2357C2.23734 12.0826 2.23734 11.9174 2.28799 11.7643ZM11.5 10.1786C10.3625 10.1786 9.56579 10.9871 9.56579 12C9.56579 13.0129 10.3625 13.8214 11.5 13.8214C12.6375 13.8214 13.4342 13.0129 13.4342 12C13.4342 10.9871 12.6375 10.1786 11.5 10.1786ZM8.06579 12C8.06579 10.0986 9.5954 8.67857 11.5 8.67857C13.4046 8.67857 14.9342 10.0986 14.9342 12C14.9342 13.9014 13.4046 15.3214 11.5 15.3214C9.5954 15.3214 8.06579 13.9014 8.06579 12Z" fill="currentColor"/>
</svg>
