<svg width="24" height="24" viewBox="0 0 24 24" fill="none" xmlns="http://www.w3.org/2000/svg">
<path d="M6.40792 6.37064C6.17727 6.22114 5.88333 6.20979 5.64184 6.34105C5.40035 6.4723 5.25 6.72514 5.25 7V17C5.25 17.2704 5.39554 17.5198 5.63092 17.6529C5.8663 17.786 6.15508 17.782 6.38675 17.6426L12.0996 14.2043V17C12.0996 17.2704 12.2451 17.5198 12.4805 17.6529C12.7159 17.786 13.0047 17.782 13.2364 17.6426L21.2364 12.8278C21.458 12.6944 21.5952 12.4563 21.5995 12.1977C21.6038 11.9391 21.4746 11.6965 21.2575 11.5558L13.2575 6.37064C13.0269 6.22114 12.7329 6.20979 12.4914 6.34105C12.25 6.4723 12.0996 6.72514 12.0996 7V10.0597L6.40792 6.37064Z" fill="currentColor"/>
</svg>
