<svg width="41" height="46" viewBox="0 0 41 46" fill="none" xmlns="http://www.w3.org/2000/svg">
    <title>Bkandine Hertzog</title>
    <path d="M13.4176 24.8001C16.0316 23.9239 17.4733 21.6547 17.4733 18.4128V14.9783C17.4733 9.29197 14.3729 6.16406 8.73663 6.16406H0V45.8981H8.73663C14.3729 45.8981 17.4733 42.7527 17.4733 37.0226V32.4315C17.4733 29.1196 16.0056 26.7802 13.435 25.9829L13.0876 25.869V24.8965L13.4263 24.7826L13.4176 24.8001ZM9.80483 38.3193C9.80483 38.7223 9.80483 39.9314 8.73663 39.9314H7.65975V28.4449H8.73663C9.44876 28.4449 9.80483 28.9619 9.80483 29.9957V38.3105V38.3193ZM9.80483 20.8573C9.80483 21.2516 9.80483 22.4695 8.73663 22.4695H7.65975V12.1483H8.73663C9.44876 12.1483 9.80483 12.674 9.80483 13.6991V20.8573Z" fill="currentColor"/>
    <path d="M28.9632 12.6555V22.6438H26.8703V6.17188H19.4189V38.8178H26.8703V28.7068H28.9632V45.9147H36.4146V12.6555H28.9632Z" fill="currentColor"/>
    <path d="M37.8557 5.09052L39.1497 8.00815L37.1523 8.63898L36.4141 5.56365L34.0606 7.64016L32.81 5.93164L35.4849 4.31949L32.7666 2.71611L33.9911 0.998828L36.362 3.0841L37.022 0L39.0281 0.657124L37.8297 3.55723L40.9561 3.28562L40.9995 5.38841L37.8557 5.09052Z" fill="currentColor"/>
</svg>
