<svg width="24" height="24" viewBox="0 0 24 24" fill="none" xmlns="http://www.w3.org/2000/svg">
<path fill-rule="evenodd" clip-rule="evenodd" d="M4.59993 3.25C5.01414 3.25 5.34993 3.58579 5.34993 4L5.34993 6.34347C6.93711 4.46645 9.29276 3.25 11.9999 3.25C16.4934 3.25 20.0979 6.64652 20.6438 10.9046C20.6965 11.3155 20.4062 11.6912 19.9953 11.7439C19.5845 11.7966 19.2087 11.5062 19.156 11.0954C18.7019 7.55348 15.7065 4.75 11.9999 4.75C9.34533 4.75 7.08903 6.16369 5.81895 8.25H8.99994C9.41415 8.25 9.74994 8.58579 9.74994 9C9.74994 9.41421 9.41415 9.75 8.99994 9.75H3.84994L3.84993 4C3.84993 3.58579 4.18571 3.25 4.59993 3.25ZM4.00456 12.2561C4.41541 12.2034 4.79117 12.4938 4.84385 12.9046C5.29794 16.4465 8.29336 19.25 11.9999 19.25C14.5722 19.25 16.889 17.8332 18.176 15.75H14.9999C14.5857 15.75 14.2499 15.4142 14.2499 15C14.2499 14.5858 14.5857 14.25 14.9999 14.25H20.1499V20C20.1499 20.4142 19.8141 20.75 19.3999 20.75C18.9857 20.75 18.6499 20.4142 18.6499 20V17.6376C17.0377 19.5272 14.6404 20.75 11.9999 20.75C7.50651 20.75 3.90194 17.3535 3.35602 13.0954C3.30335 12.6845 3.59371 12.3088 4.00456 12.2561Z" fill="currentColor"/>
</svg>
