<svg width="24" height="24" viewBox="0 0 24 24" fill="none" xmlns="http://www.w3.org/2000/svg">
<path d="M12.75 7C12.75 6.72961 12.6045 6.48016 12.3691 6.3471C12.1337 6.21404 11.8449 6.21798 11.6133 6.35741L3.61325 11.1722C3.39165 11.3056 3.25441 11.5437 3.2501 11.8023C3.2458 12.0609 3.37504 12.3035 3.59208 12.4442L11.5921 17.6294C11.8227 17.7789 12.1167 17.7902 12.3582 17.659C12.5997 17.5277 12.75 17.2749 12.75 17V13.9403L18.4417 17.6294C18.6723 17.7789 18.9663 17.7902 19.2078 17.659C19.4493 17.5277 19.5996 17.2749 19.5996 17V7C19.5996 6.72961 19.4541 6.48016 19.2187 6.3471C18.9833 6.21404 18.6945 6.21798 18.4629 6.35741L12.75 9.7957V7Z" fill="currentColor"/>
</svg>
