<svg width="24" height="24" viewBox="0 0 24 24" fill="none" xmlns="http://www.w3.org/2000/svg">
<path fill-rule="evenodd" clip-rule="evenodd" d="M10.3529 6C7.93498 6 6 7.93208 6 10.3216C6 12.7112 7.93498 14.6433 10.3529 14.6433C12.7709 14.6433 14.7059 12.7112 14.7059 10.3216C14.7059 8.00397 12.7609 6 10.3529 6ZM4 10.3216C4 6.81646 6.84149 4 10.3529 4C13.8744 4 16.7059 6.90831 16.7059 10.3216C16.7059 11.7315 16.2462 13.03 15.468 14.0786L20.4142 18.9959L19.0041 20.4142L14.0376 15.4767C12.9988 16.2119 11.7272 16.6433 10.3529 16.6433C6.84149 16.6433 4 13.8268 4 10.3216Z" fill="currentColor"/>
</svg>
