<svg width="24" height="24" viewBox="0 0 24 24" fill="none" xmlns="http://www.w3.org/2000/svg">
<path fill-rule="evenodd" clip-rule="evenodd" d="M13.9167 6.66667C13.9167 4.74134 15.408 3.25 17.3333 3.25C19.2587 3.25 20.75 4.74134 20.75 6.66667C20.75 8.59199 19.2587 10.0833 17.3333 10.0833C16.265 10.0833 15.3419 9.59738 14.7205 8.85605L9.9969 11.2179C10.0545 11.4628 10.0833 11.7202 10.0833 12C10.0833 12.2798 10.0545 12.5372 9.9969 12.7821L14.7205 15.1439C15.3419 14.4026 16.265 13.9167 17.3333 13.9167C19.2587 13.9167 20.75 15.408 20.75 17.3333C20.75 19.2587 19.2587 20.75 17.3333 20.75C15.408 20.75 13.9167 19.2587 13.9167 17.3333C13.9167 17.0233 13.9521 16.7407 14.0228 16.4721L9.33114 14.1263C8.70986 14.903 7.76502 15.4167 6.66667 15.4167C4.74134 15.4167 3.25 13.9253 3.25 12C3.25 10.0747 4.74134 8.58333 6.66667 8.58333C7.76502 8.58333 8.70986 9.09697 9.33114 9.87368L14.0228 7.52786C13.9521 7.25927 13.9167 6.9767 13.9167 6.66667ZM17.3333 4.75C16.2364 4.75 15.4167 5.56977 15.4167 6.66667C15.4167 6.99543 15.4788 7.23607 15.6042 7.48681C15.9332 8.14499 16.576 8.58333 17.3333 8.58333C18.4302 8.58333 19.25 7.76356 19.25 6.66667C19.25 5.56977 18.4302 4.75 17.3333 4.75ZM6.66667 10.0833C5.56977 10.0833 4.75 10.9031 4.75 12C4.75 13.0969 5.56977 13.9167 6.66667 13.9167C7.42402 13.9167 8.06676 13.4783 8.39585 12.8201C8.52122 12.5694 8.58333 12.3288 8.58333 12C8.58333 11.6712 8.52122 11.4306 8.39585 11.1799C8.06676 10.5217 7.42402 10.0833 6.66667 10.0833ZM17.3333 15.4167C16.576 15.4167 15.9332 15.855 15.6042 16.5132C15.4788 16.7639 15.4167 17.0046 15.4167 17.3333C15.4167 18.4302 16.2364 19.25 17.3333 19.25C18.4302 19.25 19.25 18.4302 19.25 17.3333C19.25 16.2364 18.4302 15.4167 17.3333 15.4167Z" fill="currentColor"/>
</svg>
