<svg width="24" height="24" viewBox="0 0 24 24" fill="none" xmlns="http://www.w3.org/2000/svg">
<path d="M9.87873 11.2603C9.87873 11.2603 11.9607 11.1057 11.9607 8.66435C11.9607 6.22278 10.2574 5.03125 8.09979 5.03125H1V18.6751H8.09979C8.09979 18.6751 12.434 18.812 12.434 14.648C12.434 14.6481 12.6229 11.2603 9.87873 11.2603ZM7.58876 7.45628H8.09979C8.09979 7.45628 9.06486 7.45628 9.06486 8.87586C9.06486 10.2953 8.4973 10.5011 7.85353 10.5011H4.12826V7.45628H7.58876ZM7.89917 16.2501H4.12826V12.604H8.09979C8.09979 12.604 9.53819 12.5851 9.53819 14.4777C9.53819 16.0736 8.46385 16.2381 7.89917 16.2501ZM18.2143 8.50264C12.9673 8.50264 12.972 13.745 12.972 13.745C12.972 13.745 12.612 18.9605 18.2143 18.9605C18.2143 18.9605 22.8829 19.2272 22.8829 15.3324H20.4819C20.4819 15.3324 20.562 16.7991 18.2944 16.7991C18.2944 16.7991 15.893 16.96 15.893 14.4254H22.9629C22.9629 14.4253 23.7365 8.50264 18.2143 8.50264ZM15.8666 12.604C15.8666 12.604 16.1598 10.501 18.2677 10.501C20.375 10.501 20.3487 12.604 20.3487 12.604H15.8666ZM20.908 7.51518H15.2788V5.83505H20.908V7.51518Z" fill="currentColor"/>
</svg>
