<svg width="24" height="24" viewBox="0 0 24 24" fill="none" xmlns="http://www.w3.org/2000/svg">
<path d="M6.31111 14.6298H4.88889C4.35556 14.6298 4 14.2792 4 13.7532V10.2468C4 9.72081 4.35556 9.37017 4.88889 9.37017H6.31111L10.4889 5.25009C11.0222 4.72413 12 5.07477 12 5.86372V18.1363C12 18.9252 11.0222 19.2759 10.4889 18.7499L6.31111 14.6298Z" fill="currentColor"/>
<path fill-rule="evenodd" clip-rule="evenodd" d="M15.9103 9.72014C16.2012 9.42521 16.676 9.42191 16.971 9.71276L18.2221 10.9466L19.4733 9.71276C19.7682 9.42191 20.243 9.42521 20.5339 9.72014C20.8247 10.0151 20.8214 10.4899 20.5265 10.7808L19.2902 12L20.5265 13.2192C20.8214 13.5101 20.8247 13.9849 20.5339 14.2798C20.243 14.5748 19.7682 14.5781 19.4733 14.2872L18.2221 13.0533L16.971 14.2872C16.676 14.5781 16.2012 14.5748 15.9103 14.2798C15.6195 13.9849 15.6228 13.5101 15.9177 13.2192L17.154 12L15.9177 10.7808C15.6228 10.4899 15.6195 10.0151 15.9103 9.72014Z" fill="currentColor"/>
</svg>
