<svg width="24" height="24" viewBox="0 0 24 24" fill="none" xmlns="http://www.w3.org/2000/svg">
<path d="M6.30791 14.6298H4.88766C4.35506 14.6298 4 14.2792 4 13.7532V10.2468C4 9.72081 4.35506 9.37017 4.88766 9.37017H6.30791L10.4799 5.25009C11.0125 4.72413 11.9889 5.07477 11.9889 5.86372V18.1363C11.9889 18.9252 11.0125 19.2759 10.4799 18.7499L6.30791 14.6298Z" fill="currentColor"/>
<path fill-rule="evenodd" clip-rule="evenodd" d="M17.1363 5.86271C17.4273 5.56799 17.9022 5.56502 18.1969 5.85607C21.601 9.21784 21.601 14.6945 18.1969 18.0563C17.9022 18.3474 17.4273 18.3444 17.1363 18.0497C16.8452 17.755 16.8482 17.2801 17.1429 16.989C19.9524 14.2145 19.9524 9.69785 17.1429 6.92335C16.8482 6.6323 16.8452 6.15743 17.1363 5.86271ZM14.5621 8.40488C14.8531 8.11016 15.328 8.10719 15.6227 8.39824C17.6953 10.4451 17.6953 13.6426 15.6227 15.6895C15.328 15.9805 14.8531 15.9775 14.5621 15.6828C14.271 15.3881 14.274 14.9132 14.5687 14.6222C16.0467 13.1626 16.0467 10.9251 14.5687 9.46552C14.274 9.17447 14.271 8.6996 14.5621 8.40488Z" fill="currentColor"/>
</svg>
