<svg width="24" height="24" viewBox="0 0 24 24" fill="none" xmlns="http://www.w3.org/2000/svg">
<circle cx="12" cy="12" r="4.5" fill="currentColor"/>
<path d="M12 3L13.9486 6.375H10.0514L12 3Z" fill="currentColor"/>
<path d="M12 21L10.0514 17.625L13.9486 17.625L12 21Z" fill="currentColor"/>
<path d="M21 12L17.625 13.9486L17.625 10.0514L21 12Z" fill="currentColor"/>
<path d="M3 12L6.375 10.0514L6.375 13.9486L3 12Z" fill="currentColor"/>
<path d="M18.3639 5.63607L17.4145 9.17897L14.821 6.58539L18.3639 5.63607Z" fill="currentColor"/>
<path d="M5.63614 18.3639L6.58546 14.821L9.17904 17.4146L5.63614 18.3639Z" fill="currentColor"/>
<path d="M18.3636 18.3641L14.8207 17.4148L17.4142 14.8212L18.3636 18.3641Z" fill="currentColor"/>
<path d="M5.63644 5.6359L9.17933 6.58521L6.58576 9.17879L5.63644 5.6359Z" fill="currentColor"/>
</svg>
